<?xml version="1.0" encoding="UTF-8"?>
<svg width="2444px" height="2076px" viewBox="0 0 2444 2076" version="1.1" xmlns="http://www.w3.org/2000/svg" xmlns:xlink="http://www.w3.org/1999/xlink">
    <defs>
        <polygon id="path-1" points="227.98 0.892797798 227.98 204.818318 1.3675 204.818318 1.3675 384.270676 227.98 384.270676 227.98 588.203699 407.3775 588.203699 407.3775 0.892797798"></polygon>
        <polygon id="path-3" points="0.41825 180.615245 204.275 180.615245 204.275 407.30686 383.6675 407.30686 383.6675 180.615245 587.5325 180.615245 587.5325 1.16038705 0.41825 1.16038705 0.41825 180.615245"></polygon>
        <polygon id="path-5" points="0.41825 180.615245 204.275 180.615245 204.275 407.30686 383.6675 407.30686 383.6675 180.615245 587.5325 180.615245 587.5325 1.16038705 0.41825 1.16038705 0.41825 180.615245"></polygon>
    </defs>
    <g id="Design-v1" stroke="none" stroke-width="1" fill="none" fill-rule="evenodd">
        <g id="Group-6" transform="translate(1221.500000, 1040.000000) rotate(-270.000000) translate(-1221.500000, -1040.000000) translate(181.500000, -187.500000)">
            <g id="Page-1-Copy-4" transform="translate(0.000000, 686.856857)">
                <g id="Group-21" transform="translate(0.000000, 203.609550)" fill="#eee">
                    <path d="M766.84225,817.83691 C766.84225,843.26039 746.24225,863.882268 720.80975,863.882268 C695.36725,863.882268 674.75475,843.26039 674.75475,817.83691 C674.75475,792.390922 695.36725,771.769044 720.80975,771.769044 C746.24225,771.769044 766.84225,792.390922 766.84225,817.83691" id="Fill-13"></path>
                    <path d="M2011.4765,543.231313 C2011.4765,568.654794 1990.8765,589.276672 1965.444,589.276672 C1940.0015,589.276672 1919.389,568.654794 1919.389,543.231313 C1919.389,517.785326 1940.0015,497.163447 1965.444,497.163447 C1990.8765,497.163447 2011.4765,517.785326 2011.4765,543.231313" id="Fill-14"></path>
                    <path d="M110.59425,1125.77262 C110.59425,1151.1961 89.99425,1171.81798 64.56175,1171.81798 C39.11925,1171.81798 18.50675,1151.1961 18.50675,1125.77262 C18.50675,1100.32664 39.11925,1079.70476 64.56175,1079.70476 C89.99425,1079.70476 110.59425,1100.32664 110.59425,1125.77262" id="Fill-15"></path>
                    <path d="M1355.95425,157.463138 C1355.95425,182.886618 1335.35425,203.508497 1309.92175,203.508497 C1284.47925,203.508497 1263.86675,182.886618 1263.86675,157.463138 C1263.86675,132.017151 1284.47925,111.395272 1309.92175,111.395272 C1335.35425,111.395272 1355.95425,132.017151 1355.95425,157.463138" id="Fill-16"></path>
                    <polygon id="Fill-17" points="0.6925 589.277422 180.0875 589.277422 180.0875 1.96652152 0.6925 1.96652152"></polygon>
                    <polygon id="Fill-18" points="427.24 589.277422 1014.355 589.277422 1014.355 409.822564 427.24 409.822564"></polygon>
                </g>
                <polygon id="Fill-25" fill="#eee" points="632.27725 408.648557 632.27725 181.957943 428.41975 181.957943 428.41975 59.099463 1015.53475 59.099463 1015.53475 181.957943 811.66725 181.957943 811.66725 408.648557"></polygon>
                <g id="Group-29" transform="translate(427.500000, 1.090364)" fill="#eee">
                    <polygon id="Fill-27" points="204.77725 407.558193 204.77725 180.867579 0.91975 180.867579 0.91975 1.41022039 588.03475 1.41022039 588.03475 180.867579 384.16725 180.867579 384.16725 407.558193"></polygon>
                </g>
                <polygon id="Fill-30" fill="#eee" points="1263.8665 611.043567 1490.4815 611.043567 1490.4815 407.118047 1669.879 407.118047 1669.879 994.428947 1490.4815 994.428947 1490.4815 790.493424 1263.8665 790.493424"></polygon>
                <g id="Group-34" transform="translate(1262.500000, 406.225499)">
                    <mask id="mask-2" fill="white">
                        <use xlink:href="#path-1"></use>
                    </mask>
                    <g id="Clip-33"></g>
                    <polygon id="Fill-32" fill="#eee" mask="url(#mask-2)" points="1.3665 204.818068 227.9815 204.818068 227.9815 0.892547714 407.379 0.892547714 407.379 588.203449 227.9815 588.203449 227.9815 384.267925 1.3665 384.267925"></polygon>
                </g>
                <g id="Group-43" transform="translate(245.000000, 58.609550)" fill="#eee">
                    <polygon id="Fill-35" points="1242.925 123.353645 1830.025 123.353645 1830.025 0.487662663 1242.925 0.487662663"></polygon>
                    <path d="M475.99225,1656.5408 C475.99225,1681.96428 455.39225,1702.58616 429.95975,1702.58616 C404.51725,1702.58616 383.90475,1681.96428 383.90475,1656.5408 C383.90475,1631.09481 404.51725,1610.47293 429.95975,1610.47293 C455.39225,1610.47293 475.99225,1631.09481 475.99225,1656.5408" id="Fill-37"></path>
                    <path d="M1335.006,1484.13654 C1335.006,1509.56002 1314.406,1530.1819 1288.9735,1530.1819 C1263.531,1530.1819 1242.9185,1509.56002 1242.9185,1484.13654 C1242.9185,1458.69055 1263.531,1438.06868 1288.9735,1438.06868 C1314.406,1438.06868 1335.006,1458.69055 1335.006,1484.13654" id="Fill-38"></path>
                    <polygon id="Fill-39" points="794.31 1702.58541 973.705 1702.58541 973.705 1115.27451 794.31 1115.27451"></polygon>
                    <polygon id="Fill-40" points="408.85625 1498.66039 182.24125 1498.66039 182.24125 1702.58591 2.84375 1702.58591 2.84375 1115.27501 182.24125 1115.27501 182.24125 1319.21053 408.85625 1319.21053"></polygon>
                    <polygon id="Fill-42" points="1446.77575 1530.1814 1446.77575 1303.49079 1242.91825 1303.49079 1242.91825 1124.03343 1830.03325 1124.03343 1830.03325 1303.49079 1626.16575 1303.49079 1626.16575 1530.1814"></polygon>
                </g>
                <g id="Group-46" transform="translate(1487.500000, 1181.484091)">
                    <mask id="mask-4" fill="white">
                        <use xlink:href="#path-3"></use>
                    </mask>
                    <g id="Clip-45"></g>
                    <polygon id="Fill-44" fill="#eee" mask="url(#mask-4)" points="204.27575 407.30686 204.27575 180.616246 0.41825 180.616246 0.41825 1.15888655 587.53325 1.15888655 587.53325 180.616246 383.66575 180.616246 383.66575 407.30686"></polygon>
                </g>
            </g>
            <g id="Page-1-Copy-6" transform="translate(15.000000, 1.237905)">
                <g id="Group-5" transform="translate(410.000000, 689.210150)" fill="#eee">
                    <polyline id="Fill-3" points="3.4195 57.5191859 3.4195 0.605201869 590.5345 0.605201869 590.5345 57.5191859"></polyline>
                </g>
                <g id="Group-8" transform="translate(412.500000, 689.210150)" fill="#eee">
                    <polyline id="Fill-6" points="204.77725 67.5225225 0.91975 67.5225225 0.91975 0.605201869 588.03475 0.605201869 588.03475 67.5225225 384.16725 67.5225225"></polyline>
                </g>
                <g id="Group-21" transform="translate(0.000000, 108.609550)" fill="#eee">
                    <polygon id="Fill-9" points="1472.925 637.809683 2060.025 637.809683 2060.025 581.215806 1472.925 581.215806"></polygon>
                    <path d="M95.59425,50.7726235 C95.59425,76.1961036 74.99425,96.8179821 49.56175,96.8179821 C24.11925,96.8179821 3.50675,76.1961036 3.50675,50.7726235 C3.50675,25.3266358 24.11925,4.70475726 49.56175,4.70475726 C74.99425,4.70475726 95.59425,25.3266358 95.59425,50.7726235" id="Fill-15"></path>
                </g>
                <g id="Group-43" transform="translate(230.000000, 3.609550)" fill="#eee">
                    <path d="M475.99225,541.540799 C475.99225,566.964279 455.39225,587.586157 429.95975,587.586157 C404.51725,587.586157 383.90475,566.964279 383.90475,541.540799 C383.90475,516.094811 404.51725,495.472932 429.95975,495.472932 C455.39225,495.472932 475.99225,516.094811 475.99225,541.540799" id="Fill-37"></path>
                    <path d="M1335.006,369.136542 C1335.006,394.560022 1314.406,415.181901 1288.9735,415.181901 C1263.531,415.181901 1242.9185,394.560022 1242.9185,369.136542 C1242.9185,343.690555 1263.531,323.068676 1288.9735,323.068676 C1314.406,323.068676 1335.006,343.690555 1335.006,369.136542" id="Fill-38"></path>
                    <polygon id="Fill-39" points="794.31 587.585407 973.705 587.585407 973.705 0.274506173 794.31 0.274506173"></polygon>
                    <polygon id="Fill-40" points="408.85625 383.660387 182.24125 383.660387 182.24125 587.585907 2.84375 587.585907 2.84375 0.27500634 182.24125 0.27500634 182.24125 204.21053 408.85625 204.21053"></polygon>
                    <polygon id="Fill-42" points="1446.77575 415.181401 1446.77575 188.490787 1242.91825 188.490787 1242.91825 9.03342776 1830.03325 9.03342776 1830.03325 188.490787 1626.16575 188.490787 1626.16575 415.181401"></polygon>
                </g>
                <g id="Group-46" transform="translate(1472.500000, 11.484091)">
                    <mask id="mask-6" fill="white">
                        <use xlink:href="#path-5"></use>
                    </mask>
                    <g id="Clip-45"></g>
                    <polygon id="Fill-44" fill="#eee" mask="url(#mask-6)" points="204.27575 407.30686 204.27575 180.616246 0.41825 180.616246 0.41825 1.15888655 587.53325 1.15888655 587.53325 180.616246 383.66575 180.616246 383.66575 407.30686"></polygon>
                </g>
            </g>
        </g>
    </g>
</svg>
