<svg version="1.1" id="Calque_1" xmlns="http://www.w3.org/2000/svg" xmlns:xlink="http://www.w3.org/1999/xlink" x="0px" y="0px"
	 viewBox="0 0 498.9 137.1" style="enable-background:new 0 0 498.9 137.1;" xml:space="preserve">
<style type="text/css">
	.st0{fill:#1D1D1B;}
</style>
<title>2271_HGLASS_Logo_2018</title>
<rect x="73.9" y="17.2" class="st0" width="30.1" height="119.9"/>
<polygon class="st0" points="30.1,17.2 0,17.2 0,137.1 30.1,137.1 30.1,85.2 67,85.2 67,70.1 30.1,70.1 "/>
<rect x="118.9" y="122" class="st0" width="15.1" height="15.1"/>
<polygon class="st0" points="182.9,96 182.9,111.3 199.9,111.3 199.9,122 163.9,122 163.9,85.2 214.9,85.2 214.9,70.1 149,70.1 
	149,137.1 214.9,137.1 214.9,96 "/>
<polygon class="st0" points="288,137.1 230,137.1 230,70.1 244.8,70.1 244.8,122 288,122 "/>
<rect x="272.1" y="70.1" class="st0" width="24.9" height="15.1"/>
<polygon class="st0" points="308.4,10.7 308.4,10.7 297.7,0 287,10.7 239.2,58.5 249.9,69.2 297.7,21.4 345.5,69.2 356.2,58.5 "/>
<rect x="301.1" y="70.1" class="st0" width="24.9" height="15.1"/>
<polygon class="st0" points="417.9,70.1 352.1,70.1 352.1,111 402.9,111 402.9,122 352.1,122 352.1,137.1 417.9,137.1 417.9,96 
	366.9,96 366.9,85.2 417.9,85.2 "/>
<polygon class="st0" points="498.9,70.1 433.1,70.1 433.1,111 483.9,111 483.9,122 433.1,122 433.1,137.1 498.9,137.1 498.9,96 
	448,96 448,85.2 498.9,85.2 "/>
</svg>
